<mxfile host="app.diagrams.net" modified="2024-04-16T09:27:33.823Z" agent="Mozilla/5.0 (Windows NT 10.0; Win64; x64) AppleWebKit/537.36 (KHTML, like Gecko) Chrome/120.0.0.0 Safari/537.36" etag="cCaQx65bYNM0OINQ_r3a" version="24.2.5" type="github">
  <diagram id="6a731a19-8d31-9384-78a2-239565b7b9f0" name="Page-1">
    <mxGraphModel dx="1195" dy="643" grid="1" gridSize="10" guides="1" tooltips="1" connect="1" arrows="1" fold="1" page="1" pageScale="1" pageWidth="1169" pageHeight="827" background="none" math="0" shadow="0">
      <root>
        <mxCell id="0" />
        <mxCell id="1" parent="0" />
        <mxCell id="45" value="" style="edgeStyle=elbowEdgeStyle;elbow=horizontal;exitX=1;exitY=0.5;exitPerimeter=0;entryX=0.905;entryY=0.5;entryPerimeter=0;fontStyle=1;strokeColor=#003366;strokeWidth=1;html=1;" parent="1" target="34" edge="1">
          <mxGeometry width="100" height="100" as="geometry">
            <mxPoint x="380.5" y="1119.25" as="sourcePoint" />
            <mxPoint x="100" as="targetPoint" />
            <Array as="points">
              <mxPoint x="950" y="1320" />
            </Array>
          </mxGeometry>
        </mxCell>
        <mxCell id="Vn_wHEVYffyovXbaqYnR-59" value="" style="group" vertex="1" connectable="0" parent="1">
          <mxGeometry x="120" y="80" width="494.84" height="790" as="geometry" />
        </mxCell>
        <mxCell id="2" value="开始" style="shape=mxgraph.flowchart.terminator;strokeWidth=2;gradientColor=none;gradientDirection=north;fontStyle=0;html=1;" parent="Vn_wHEVYffyovXbaqYnR-59" vertex="1">
          <mxGeometry x="182.30947368421053" width="104.17684210526316" height="26.043956043956044" as="geometry" />
        </mxCell>
        <mxCell id="3" value="系统登录页面" style="shape=mxgraph.flowchart.data;strokeWidth=2;gradientColor=none;gradientDirection=north;fontStyle=0;html=1;" parent="Vn_wHEVYffyovXbaqYnR-59" vertex="1">
          <mxGeometry x="165.38073684210528" y="60.769230769230774" width="138.03431578947368" height="69.45054945054946" as="geometry" />
        </mxCell>
        <mxCell id="4" value="进入主页" style="shape=mxgraph.flowchart.data;strokeWidth=2;gradientColor=none;gradientDirection=north;fontStyle=0;html=1;" parent="Vn_wHEVYffyovXbaqYnR-59" vertex="1">
          <mxGeometry x="165.38073684210528" y="390.65934065934067" width="138.03431578947368" height="69.45054945054946" as="geometry" />
        </mxCell>
        <mxCell id="5" value="输入账号、密码、&lt;div&gt;验证码，点击登录&lt;/div&gt;" style="shape=mxgraph.flowchart.data;strokeWidth=2;gradientColor=none;gradientDirection=north;fontStyle=0;html=1;" parent="Vn_wHEVYffyovXbaqYnR-59" vertex="1">
          <mxGeometry x="165.38073684210528" y="164.94505494505495" width="138.03431578947368" height="69.45054945054946" as="geometry" />
        </mxCell>
        <mxCell id="6" value="验证信息是否正确" style="shape=mxgraph.flowchart.decision;strokeWidth=2;gradientColor=none;gradientDirection=north;fontStyle=0;html=1;" parent="Vn_wHEVYffyovXbaqYnR-59" vertex="1">
          <mxGeometry x="174.69588280701754" y="286.4835164835165" width="119.40402385964912" height="69.45054945054946" as="geometry" />
        </mxCell>
        <mxCell id="7" style="fontStyle=1;strokeColor=#003366;strokeWidth=1;html=1;" parent="Vn_wHEVYffyovXbaqYnR-59" source="2" target="3" edge="1">
          <mxGeometry relative="1" as="geometry" />
        </mxCell>
        <mxCell id="8" style="fontStyle=1;strokeColor=#003366;strokeWidth=1;html=1;" parent="Vn_wHEVYffyovXbaqYnR-59" source="3" target="5" edge="1">
          <mxGeometry relative="1" as="geometry" />
        </mxCell>
        <mxCell id="9" style="entryX=0.5;entryY=0;entryPerimeter=0;fontStyle=1;strokeColor=#003366;strokeWidth=1;html=1;" parent="Vn_wHEVYffyovXbaqYnR-59" source="5" target="6" edge="1">
          <mxGeometry relative="1" as="geometry" />
        </mxCell>
        <mxCell id="10" value="" style="edgeStyle=elbowEdgeStyle;elbow=horizontal;entryX=0.5;entryY=0.91;entryPerimeter=0;exitX=1;exitY=0.5;exitPerimeter=0;fontStyle=1;strokeColor=#003366;strokeWidth=1;html=1;" parent="Vn_wHEVYffyovXbaqYnR-59" source="6" target="51" edge="1">
          <mxGeometry x="330.76147368421056" y="24.74175824175824" width="86.8140350877193" height="86.81318681318682" as="geometry">
            <mxPoint x="607.698245614035" y="335.967032967033" as="sourcePoint" />
            <mxPoint x="621.0632663157895" y="224.4120879120879" as="targetPoint" />
            <Array as="points">
              <mxPoint x="429.7294736842105" y="295.16483516483515" />
            </Array>
          </mxGeometry>
        </mxCell>
        <mxCell id="11" value="no" style="text;fontStyle=0;html=1;strokeColor=none;gradientColor=none;fillColor=none;strokeWidth=2;" parent="Vn_wHEVYffyovXbaqYnR-59" vertex="1">
          <mxGeometry x="277.8049122807017" y="286.4835164835165" width="34.725614035087716" height="22.571428571428573" as="geometry" />
        </mxCell>
        <mxCell id="12" value="" style="edgeStyle=elbowEdgeStyle;elbow=horizontal;fontColor=#001933;fontStyle=1;strokeColor=#003366;strokeWidth=1;html=1;" parent="Vn_wHEVYffyovXbaqYnR-59" source="6" target="4" edge="1">
          <mxGeometry width="86.8140350877193" height="86.81318681318682" as="geometry">
            <mxPoint x="-43.40701754385965" y="34.72527472527473" as="sourcePoint" />
            <mxPoint x="43.40701754385965" y="-52.08791208791209" as="targetPoint" />
          </mxGeometry>
        </mxCell>
        <mxCell id="14" value="yes" style="text;fontStyle=0;html=1;strokeColor=none;gradientColor=none;fillColor=none;strokeWidth=2;align=center;" parent="Vn_wHEVYffyovXbaqYnR-59" vertex="1">
          <mxGeometry x="234.39789473684212" y="347.25274725274727" width="34.725614035087716" height="22.571428571428573" as="geometry" />
        </mxCell>
        <mxCell id="17" value="" style="edgeStyle=elbowEdgeStyle;elbow=horizontal;fontStyle=1;strokeColor=#003366;strokeWidth=1;html=1;" parent="Vn_wHEVYffyovXbaqYnR-59" source="4" edge="1">
          <mxGeometry width="86.8140350877193" height="86.81318681318682" as="geometry">
            <mxPoint x="-43.40701754385965" y="34.72527472527473" as="sourcePoint" />
            <mxPoint x="234.39789473684212" y="503.5164835164835" as="targetPoint" />
          </mxGeometry>
        </mxCell>
        <mxCell id="51" value="信息错误" style="shape=mxgraph.flowchart.paper_tape;strokeWidth=2;gradientColor=none;gradientDirection=north;fontStyle=0;html=1;" parent="Vn_wHEVYffyovXbaqYnR-59" vertex="1">
          <mxGeometry x="364.61894736842106" y="208.35164835164835" width="130.22105263157894" height="70.31868131868131" as="geometry" />
        </mxCell>
        <mxCell id="52" value="" style="edgeStyle=elbowEdgeStyle;elbow=horizontal;entryX=0.905;entryY=0.5;entryPerimeter=0;fontStyle=1;strokeColor=#003366;strokeWidth=1;html=1;exitX=0.5;exitY=0.09;exitDx=0;exitDy=0;exitPerimeter=0;" parent="Vn_wHEVYffyovXbaqYnR-59" source="51" edge="1">
          <mxGeometry width="86.8140350877193" height="86.81318681318682" as="geometry">
            <mxPoint x="429.7294736842105" y="110.50450549450547" as="sourcePoint" />
            <mxPoint x="290.30179263157896" y="95.4945054945055" as="targetPoint" />
            <Array as="points">
              <mxPoint x="429.7294736842105" y="104.17582417582418" />
            </Array>
          </mxGeometry>
        </mxCell>
        <mxCell id="54" value="" style="edgeStyle=elbowEdgeStyle;elbow=horizontal;entryX=0.095;entryY=0.5;entryPerimeter=0;fontStyle=1;strokeColor=#003366;strokeWidth=1;html=1;exitX=0.095;exitY=0.5;exitDx=0;exitDy=0;exitPerimeter=0;" parent="Vn_wHEVYffyovXbaqYnR-59" source="Vn_wHEVYffyovXbaqYnR-55" target="5" edge="1">
          <mxGeometry width="86.8140350877193" height="86.81318681318682" as="geometry">
            <mxPoint x="217.03508771929825" y="902.8571428571429" as="sourcePoint" />
            <mxPoint x="43.40701754385965" y="-52.08791208791209" as="targetPoint" />
            <Array as="points">
              <mxPoint x="60.76982456140351" y="790" />
            </Array>
          </mxGeometry>
        </mxCell>
        <mxCell id="Vn_wHEVYffyovXbaqYnR-64" value="" style="edgeStyle=orthogonalEdgeStyle;rounded=0;orthogonalLoop=1;jettySize=auto;html=1;" edge="1" parent="Vn_wHEVYffyovXbaqYnR-59" source="Vn_wHEVYffyovXbaqYnR-55" target="Vn_wHEVYffyovXbaqYnR-63">
          <mxGeometry relative="1" as="geometry" />
        </mxCell>
        <mxCell id="Vn_wHEVYffyovXbaqYnR-55" value="信息处理" style="shape=mxgraph.flowchart.data;strokeWidth=2;gradientColor=none;gradientDirection=north;fontStyle=0;html=1;" vertex="1" parent="Vn_wHEVYffyovXbaqYnR-59">
          <mxGeometry x="165.38" y="503.52" width="138.03" height="66.48" as="geometry" />
        </mxCell>
        <mxCell id="Vn_wHEVYffyovXbaqYnR-58" value="数据库" style="shape=mxgraph.flowchart.paper_tape;strokeWidth=2;gradientColor=none;gradientDirection=north;fontStyle=0;html=1;" vertex="1" parent="Vn_wHEVYffyovXbaqYnR-59">
          <mxGeometry y="286.4835164835165" width="130.22105263157894" height="70.31868131868131" as="geometry" />
        </mxCell>
        <mxCell id="Vn_wHEVYffyovXbaqYnR-63" value="结束" style="shape=mxgraph.flowchart.terminator;strokeWidth=2;gradientColor=none;gradientDirection=north;fontStyle=0;html=1;" vertex="1" parent="Vn_wHEVYffyovXbaqYnR-59">
          <mxGeometry x="182.3094736842105" y="610" width="104.17684210526316" height="26.043956043956044" as="geometry" />
        </mxCell>
      </root>
    </mxGraphModel>
  </diagram>
</mxfile>
